<svg width="512" height="172" viewBox="0 0 512 172" fill="none" xmlns="http://www.w3.org/2000/svg">
<path d="M229.448 113.909C229.448 116.949 226.983 119.414 223.942 119.414H190.252C189.249 119.414 188.163 119.301 186.993 119.076C185.851 118.821 184.708 118.44 183.566 117.932C182.452 117.424 181.379 116.774 180.349 115.984C179.318 115.165 178.399 114.191 177.591 113.062C176.811 111.904 176.184 110.577 175.71 109.081C175.237 107.556 175 105.848 175 103.956V74.1403C175 73.1239 175.111 72.0369 175.334 70.8792C175.585 69.6934 175.961 68.5358 176.463 67.4064C176.964 66.2488 177.619 65.1476 178.426 64.103C179.234 63.0583 180.195 62.1407 181.31 61.3501C182.452 60.5313 183.761 59.8819 185.238 59.4019C186.714 58.9219 188.386 58.6819 190.252 58.6819H223.942C226.983 58.6819 229.448 61.1469 229.448 64.1877C229.448 67.2284 226.983 69.6934 223.942 69.6934H190.252C188.831 69.6934 187.745 70.0746 186.993 70.8369C186.241 71.5992 185.864 72.7286 185.864 74.225V103.956C185.864 105.368 186.241 106.469 186.993 107.259C187.773 108.022 188.859 108.403 190.252 108.403H223.942C226.983 108.403 229.448 110.868 229.448 113.909Z" fill="#29ABE2"/>
<path d="M287.071 103.956C287.071 105.848 286.834 107.556 286.361 109.081C285.887 110.577 285.26 111.904 284.48 113.062C283.7 114.191 282.795 115.165 281.764 115.984C280.733 116.774 279.647 117.424 278.505 117.932C277.39 118.44 276.248 118.821 275.078 119.076C273.936 119.301 272.85 119.414 271.819 119.414H252.221C250.717 119.414 249.073 119.146 247.29 118.61C245.507 118.073 243.85 117.198 242.318 115.984C240.813 114.742 239.546 113.146 238.515 111.198C237.512 109.222 237.011 106.808 237.011 103.956V89.0481C237.011 86.2247 237.512 83.8389 238.515 81.8907C239.546 79.9143 240.813 78.319 242.318 77.1049C243.85 75.8626 245.507 74.9732 247.29 74.4368C249.073 73.9003 250.717 73.6321 252.221 73.6321H271.819C274.605 73.6321 276.973 74.1403 278.923 75.1568C280.873 76.1732 282.447 77.4579 283.644 79.0108C284.842 80.5354 285.706 82.2013 286.235 84.0083C286.792 85.8153 287.071 87.4952 287.071 89.0481V103.956ZM276.206 89.1328C276.206 87.6082 275.83 86.4788 275.078 85.7447C274.326 85.0106 273.24 84.6436 271.819 84.6436H252.305C250.856 84.6436 249.756 85.0247 249.004 85.7871C248.251 86.5212 247.875 87.6082 247.875 89.0481V103.956C247.875 105.396 248.251 106.497 249.004 107.259C249.756 108.022 250.856 108.403 252.305 108.403H271.819C273.295 108.403 274.396 108.022 275.12 107.259C275.844 106.497 276.206 105.396 276.206 103.956V89.1328Z" fill="#29ABE2"/>
<path d="M345.906 103.956C345.906 105.848 345.669 107.556 345.196 109.081C344.722 110.577 344.095 111.904 343.315 113.062C342.535 114.191 341.63 115.165 340.599 115.984C339.568 116.774 338.482 117.424 337.34 117.932C336.226 118.44 335.083 118.821 333.913 119.076C332.771 119.301 331.685 119.414 330.654 119.414H311.056C309.19 119.414 307.518 119.174 306.042 118.694C304.565 118.214 303.256 117.579 302.114 116.789C301 115.97 300.039 115.038 299.231 113.993C298.451 112.949 297.81 111.862 297.309 110.732C296.807 109.575 296.431 108.417 296.18 107.259C295.957 106.074 295.846 104.972 295.846 103.956V89.0481C295.846 86.2247 296.347 83.8389 297.35 81.8907C298.381 79.9143 299.649 78.319 301.153 77.1049C302.685 75.8626 304.343 74.9732 306.125 74.4368C307.908 73.9003 309.552 73.6321 311.056 73.6321H325.148C328.189 73.6321 330.654 76.0971 330.654 79.1378C330.654 82.1786 328.189 84.6436 325.148 84.6436H311.14C309.691 84.6436 308.591 85.0247 307.839 85.7871C307.087 86.5212 306.711 87.6082 306.711 89.0481V103.871C306.711 105.368 307.073 106.497 307.797 107.259C308.549 108.022 309.636 108.403 311.056 108.403H330.654C332.131 108.403 333.231 108.022 333.955 107.259C334.679 106.497 335.042 105.396 335.042 103.956V59.7096C335.042 56.7094 337.474 54.2773 340.474 54.2773C343.474 54.2773 345.906 56.7094 345.906 59.7096V103.956Z" fill="#29ABE2"/>
<path d="M405.828 103.956C405.828 105.848 405.591 107.556 405.117 109.081C404.644 110.577 404.017 111.904 403.237 113.062C402.457 114.191 401.552 115.165 400.521 115.984C399.49 116.774 398.404 117.424 397.261 117.932C396.147 118.44 395.005 118.821 393.835 119.076C392.693 119.301 391.606 119.414 390.576 119.414H370.978C369.111 119.414 367.44 119.174 365.964 118.694C364.487 118.214 363.178 117.579 362.036 116.789C360.921 115.97 359.96 115.038 359.152 113.993C358.372 112.949 357.732 111.862 357.23 110.732C356.729 109.575 356.353 108.417 356.102 107.259C355.879 106.074 355.768 104.972 355.768 103.956V89.0481C355.768 86.2247 356.269 83.8389 357.272 81.8907C358.303 79.9143 359.57 78.319 361.075 77.1049C362.607 75.8626 364.264 74.9732 366.047 74.4368C367.83 73.9003 369.474 73.6321 370.978 73.6321H385.07C388.111 73.6321 390.576 76.0971 390.576 79.1378C390.576 82.1786 388.111 84.6436 385.07 84.6436H371.061C369.613 84.6436 368.512 85.0247 367.76 85.7871C367.008 86.5212 366.632 87.6082 366.632 89.0481V103.871C366.632 105.368 366.994 106.497 367.719 107.259C368.471 108.022 369.557 108.403 370.978 108.403H390.576C392.052 108.403 393.152 108.022 393.877 107.259C394.601 106.497 394.963 105.396 394.963 103.956V59.7096C394.963 56.7094 397.395 54.2773 400.395 54.2773C403.396 54.2773 405.828 56.7094 405.828 59.7096V103.956Z" fill="#29ABE2"/>
<path d="M466 123.819C466 125.711 465.763 127.405 465.29 128.901C464.816 130.426 464.189 131.753 463.409 132.882C462.629 134.04 461.724 135.014 460.693 135.804C459.662 136.623 458.576 137.287 457.434 137.795C456.32 138.303 455.191 138.67 454.049 138.896C452.907 139.15 451.821 139.277 450.79 139.277H436.698C433.657 139.277 431.192 136.812 431.192 133.772C431.192 130.731 433.657 128.266 436.698 128.266H450.79C452.238 128.266 453.325 127.885 454.049 127.122C454.773 126.36 455.136 125.259 455.136 123.819V79.0643C455.136 76.0642 457.568 73.6321 460.568 73.6321C463.568 73.6321 466 76.0642 466 79.0643V123.819ZM450.79 113.909C450.79 116.949 448.325 119.414 445.284 119.414H431.192C429.632 119.414 427.961 119.146 426.178 118.61C424.423 118.073 422.779 117.198 421.247 115.984C419.715 114.742 418.447 113.146 417.444 111.198C416.441 109.222 415.94 106.808 415.94 103.956V79.0643C415.94 76.0642 418.372 73.6321 421.372 73.6321C424.372 73.6321 426.804 76.0642 426.804 79.0643V103.956C426.804 105.396 427.181 106.497 427.933 107.259C428.685 108.022 429.799 108.403 431.276 108.403H445.284C448.325 108.403 450.79 110.868 450.79 113.909Z" fill="#29ABE2"/>
<path d="M125.832 99.5661C125.832 124.79 124.766 130.122 87.032 130.122C49.2981 130.122 48.1497 124.79 48.1497 99.5661C48.1497 74.3417 49.2981 69.584 87.032 69.584C124.766 69.584 125.832 74.3417 125.832 99.5661Z" fill="#29A9E2"/>
<mask id="mask0_13142_597" style="mask-type:alpha" maskUnits="userSpaceOnUse" x="48" y="69" width="78" height="62">
<path d="M125.832 99.5661C125.832 124.79 124.766 130.122 87.032 130.122C49.2981 130.122 48.1497 124.79 48.1497 99.5661C48.1497 74.3417 49.2981 69.584 87.032 69.584C124.766 69.584 125.832 74.3417 125.832 99.5661Z" fill="#29AAE3"/>
</mask>
<g mask="url(#mask0_13142_597)">
<path d="M126.693 87.6717L123.699 78.2382L120.541 73.6445L115.209 72.0449C115.209 72.0449 112.297 72.291 109.18 72.6191C107.894 72.7545 107 72.9247 106.392 73.078C105.962 73.1863 106.004 73.6332 106.437 73.7261C108.106 74.084 111.127 74.7877 112.871 75.5312C115.373 76.5976 115.783 77.0078 117.219 78.6073C118.655 80.2069 119.352 82.7499 119.598 84.3085C119.719 85.0763 120.664 90.3787 121.238 97.6794C121.813 104.98 122.059 106.621 120.787 114.25C119.516 121.878 115.373 127.251 115.373 127.251L121.074 125.16L124.725 119.581L126.324 108.507L126.693 87.6717Z" fill="#118BD4"/>
<path d="M50.7744 117.652C50.8154 119.088 51.1845 121.59 51.1845 121.59L47.165 118.924L48.1904 93.9453C48.1904 93.9453 48.6416 100.713 49.9131 104.363C51.1845 108.014 56.2704 115.437 56.2704 115.437L54.1786 114.535C54.1786 114.535 52.7021 114.002 51.9638 114.535C51.2255 115.068 50.7334 116.217 50.7744 117.652Z" fill="#118BD4"/>
<path d="M70.9952 73.0703C72.2774 73.3267 72.2944 73.1032 72.712 73.0136C72.7794 72.9991 72.8245 73.0724 72.7846 73.1287C72.5483 73.4621 71.9253 74.2954 71.4054 74.5878C70.7491 74.957 69.6417 75.2441 68.5343 74.7929C67.4269 74.3417 65.1711 72.3012 63.6535 71.9219C62.1359 71.5425 58.9778 71.9219 58.9778 71.9219L66.5246 70.1582C67.1945 70.7734 69.5597 72.7832 70.9952 73.0703Z" fill="#118BD4"/>
</g>
<path d="M62.0538 116.877C58.1984 116.693 56.1886 115.441 55.4504 115.031C54.7121 114.621 51.718 113.226 51.718 113.226L49.052 108.961L48.7239 102.727L52.0051 108.674L56.3937 112.939L64.2686 114.785L71.3232 113.226L77.2294 110.355C77.2294 110.355 76.6142 111.709 74.9736 113.144C73.333 114.58 70.5439 115.691 69.2314 116.18C67.919 116.668 65.9092 117.06 62.0538 116.877Z" fill="#118BD4"/>
<path d="M96.5061 111.666C95.7268 110.23 95.2756 107.975 95.2756 107.975C97.3127 109.082 102.289 112.207 103.11 112.404C103.93 112.601 108.127 113.361 110.123 113.717C112.762 113.033 118.096 111.666 118.326 111.666C118.556 111.666 121.977 106.689 123.658 104.201L123.412 110.928C123.412 110.928 122.223 113.142 121.361 113.84C120.5 114.537 117.588 116.178 115.455 116.629C113.322 117.08 112.174 117.244 109.836 117.203C107.498 117.162 106.473 116.998 104.258 116.547C102.043 116.096 100.156 114.947 99.5002 114.619C98.844 114.291 97.2854 113.101 96.5061 111.666Z" fill="#118BD4"/>
<path fill-rule="evenodd" clip-rule="evenodd" d="M93.0173 97.9981C89.1314 96.2558 84.6865 96.2558 80.8006 97.9981L79.1226 94.2555C84.0759 92.0346 89.742 92.0346 94.6954 94.2555L93.0173 97.9981Z" fill="#003F7D"/>
<path d="M124.457 97.4348C122.276 109.248 117.585 112.938 109.433 112.938C99.5374 112.602 94.3379 107.93 93.6909 98.1776C93.6909 90.0259 98.0039 83.8729 110.559 84.4719C118.702 84.8604 125.788 90.2226 124.457 97.4348Z" fill="#FFFAE8"/>
<path fill-rule="evenodd" clip-rule="evenodd" d="M95.742 98.1098C96.0523 102.617 97.386 105.634 99.4889 107.585C101.612 109.555 104.825 110.724 109.468 110.887C113.214 110.881 115.813 110.036 117.754 108.146C119.77 106.183 121.38 102.805 122.44 97.0624C122.951 94.295 121.894 91.8446 119.712 89.9389C117.489 87.9972 114.144 86.6958 110.462 86.5202C104.498 86.2357 100.916 87.5741 98.8197 89.5391C96.7411 91.4879 95.7538 94.4016 95.742 98.1098ZM96.0144 86.547C99.2139 83.5474 104.065 82.1088 110.657 82.4233C115.118 82.6361 119.387 84.2101 122.41 86.8496C125.474 89.5252 127.294 93.362 126.474 97.8069C125.353 103.877 123.527 108.25 120.615 111.085C117.633 113.988 113.821 114.988 109.434 114.988H109.399L109.364 114.987C104.13 114.81 99.8062 113.475 96.6991 110.592C93.577 107.695 91.9903 103.52 91.6449 98.3132L91.6404 98.2454V98.1774C91.6404 93.7662 92.8103 89.5511 96.0144 86.547Z" fill="#003F7D"/>
<path fill-rule="evenodd" clip-rule="evenodd" d="M104.074 99.1419C104.074 99.1418 104.074 99.1418 103.731 98.2986C103.387 97.4555 103.387 97.4554 103.387 97.4553L103.389 97.4547L103.392 97.4535L103.4 97.4501C103.407 97.4474 103.416 97.4438 103.427 97.4393C103.45 97.4304 103.482 97.418 103.523 97.4029C103.604 97.3727 103.72 97.3312 103.864 97.2834C104.152 97.1881 104.557 97.0663 105.037 96.9581C105.979 96.7456 107.281 96.5681 108.546 96.8046C109.819 97.0422 110.961 97.6922 111.753 98.2427C112.156 98.5229 112.486 98.7892 112.716 98.9866C112.831 99.0856 112.922 99.1679 112.986 99.2269C113.018 99.2564 113.043 99.2801 113.061 99.2972C113.07 99.3058 113.077 99.3127 113.082 99.3178L113.089 99.3242L113.091 99.3264L113.092 99.3276C113.092 99.3278 113.092 99.328 112.453 99.9759C111.813 100.624 111.813 100.624 111.813 100.624L111.812 100.623C111.81 100.621 111.807 100.618 111.801 100.612C111.79 100.602 111.772 100.585 111.748 100.563C111.7 100.518 111.626 100.451 111.53 100.368C111.337 100.203 111.057 99.9762 110.714 99.7383C110.015 99.2525 109.12 98.7643 108.212 98.5947C107.297 98.4237 106.274 98.5458 105.438 98.7346C105.027 98.8271 104.68 98.9314 104.437 99.012C104.315 99.0522 104.221 99.0862 104.159 99.1094C104.128 99.121 104.104 99.1299 104.09 99.1355C104.083 99.1383 104.078 99.1403 104.075 99.1413L104.073 99.1422L104.074 99.1419Z" fill="black"/>
<path d="M113.363 99.975C113.363 100.478 112.955 100.885 112.453 100.885C111.95 100.885 111.542 100.478 111.542 99.975C111.542 99.4721 111.95 99.0645 112.453 99.0645C112.955 99.0645 113.363 99.4721 113.363 99.975Z" fill="black"/>
<path d="M104.593 98.3485C104.593 98.8514 104.162 99.2351 103.659 99.2351C103.156 99.2351 102.772 98.8514 102.772 98.3485C102.772 97.8457 103.156 97.4141 103.659 97.4141C104.162 97.4141 104.593 97.8457 104.593 98.3485Z" fill="black"/>
<path d="M49.2136 97.4348C51.394 109.248 56.0854 112.938 64.2371 112.938C74.133 112.602 79.3325 107.93 79.9795 98.1776C79.9795 90.0259 75.6665 83.8729 63.111 84.4719C54.9685 84.8604 47.8823 90.2226 49.2136 97.4348Z" fill="#FFFAE8"/>
<path fill-rule="evenodd" clip-rule="evenodd" d="M77.9284 98.1098C77.6181 102.617 76.2844 105.634 74.1815 107.585C72.0585 109.555 68.8459 110.724 64.2023 110.887C60.4567 110.881 57.8575 110.036 55.9164 108.146C53.9001 106.183 52.2901 102.805 51.23 97.0624C50.7192 94.295 51.7762 91.8446 53.9584 89.9389C56.1817 87.9972 59.5263 86.6958 63.2085 86.5202C69.172 86.2357 72.7548 87.5741 74.8507 89.5391C76.9293 91.4879 77.9166 94.4016 77.9284 98.1098ZM77.656 86.547C74.4565 83.5474 69.605 82.1088 63.013 82.4233C58.5527 82.6361 54.283 84.2101 51.2605 86.8496C48.1967 89.5252 46.3762 93.362 47.1967 97.8069C48.3171 103.877 50.143 108.25 53.0554 111.085C56.0371 113.988 59.8494 114.988 64.2369 114.988H64.2716L64.3064 114.987C69.5399 114.81 73.8642 113.475 76.9714 110.592C80.0934 107.695 81.6801 103.52 82.0255 98.3132L82.03 98.2454V98.1774C82.03 93.7662 80.8602 89.5511 77.656 86.547Z" fill="#003F7D"/>
<path fill-rule="evenodd" clip-rule="evenodd" d="M69.5962 99.1419C69.596 99.1418 69.5958 99.1418 69.9396 98.2986C70.2834 97.4555 70.2832 97.4554 70.283 97.4553L70.2814 97.4547L70.2786 97.4535L70.2702 97.4501C70.2634 97.4474 70.2542 97.4438 70.2427 97.4393C70.2198 97.4304 70.1877 97.418 70.1471 97.4029C70.0659 97.3727 69.9505 97.3312 69.8063 97.2834C69.5186 97.1881 69.1128 97.0663 68.6333 96.9581C67.691 96.7456 66.3894 96.5681 65.1238 96.8046C63.8515 97.0422 62.7094 97.6922 61.9171 98.2427C61.5137 98.5229 61.1843 98.7892 60.9543 98.9866C60.839 99.0856 60.748 99.1679 60.6843 99.2269C60.6525 99.2564 60.6274 99.2801 60.6095 99.2972C60.6006 99.3058 60.5935 99.3127 60.5882 99.3178L60.5816 99.3242L60.5794 99.3264L60.5781 99.3276C60.578 99.3278 60.5778 99.328 61.2175 99.9759C61.8572 100.624 61.8571 100.624 61.857 100.624L61.8579 100.623C61.8599 100.621 61.8636 100.618 61.8691 100.612C61.88 100.602 61.8978 100.585 61.9219 100.563C61.9703 100.518 62.0442 100.451 62.1404 100.368C62.3335 100.203 62.6136 99.9762 62.9561 99.7383C63.6554 99.2525 64.5501 98.7643 65.4582 98.5947C66.373 98.4237 67.3957 98.5458 68.2326 98.7346C68.6427 98.8271 68.9902 98.9314 69.2334 99.012C69.3547 99.0522 69.4492 99.0862 69.5115 99.1094C69.5426 99.121 69.5657 99.1299 69.58 99.1355C69.5871 99.1383 69.5921 99.1403 69.5948 99.1413L69.5969 99.1422L69.5962 99.1419Z" fill="black"/>
<path d="M60.3071 99.975C60.3071 100.478 60.7148 100.885 61.2177 100.885C61.7205 100.885 62.1282 100.478 62.1282 99.975C62.1282 99.4721 61.7205 99.0645 61.2177 99.0645C60.7148 99.0645 60.3071 99.4721 60.3071 99.975Z" fill="black"/>
<path d="M69.0772 98.3485C69.0772 98.8514 69.5088 99.2351 70.0116 99.2351C70.5145 99.2351 70.8982 98.8514 70.8982 98.3485C70.8982 97.8457 70.5145 97.4141 70.0116 97.4141C69.5088 97.4141 69.0772 97.8457 69.0772 98.3485Z" fill="black"/>
<path fill-rule="evenodd" clip-rule="evenodd" d="M91.8154 119.952C91.4437 120.352 90.8986 120.872 90.2934 121.197C89.2444 121.76 88.4291 122.089 87.1497 122.249C85.9363 122.401 84.9508 122.456 83.461 122.142C82.7176 121.986 82.1372 121.773 81.677 121.485C81.2046 121.19 80.8899 120.835 80.6553 120.444L81.9045 119.695C82.0342 119.911 82.1929 120.09 82.4491 120.25C82.7173 120.418 83.1204 120.582 83.7612 120.716C85.0396 120.986 85.8511 120.943 86.969 120.804C88.0208 120.672 88.6624 120.419 89.6046 119.913C89.9951 119.704 90.4092 119.325 90.7478 118.961C90.9113 118.784 91.0465 118.623 91.1404 118.507C91.1871 118.449 91.2232 118.402 91.247 118.371C91.2589 118.356 91.2676 118.344 91.2731 118.337C91.2758 118.333 91.2777 118.33 91.2787 118.329L91.2794 118.328C91.2793 118.328 91.2793 118.328 91.8674 118.758C92.4555 119.188 92.4555 119.188 92.4554 119.188L92.4552 119.188L92.4548 119.189L92.4538 119.19L92.4507 119.194C92.4482 119.198 92.4448 119.202 92.4405 119.208C92.432 119.22 92.4199 119.236 92.4046 119.256C92.3741 119.296 92.3303 119.352 92.275 119.421C92.1647 119.558 92.007 119.746 91.8154 119.952Z" fill="black"/>
<path d="M82.0085 120.068C82.0085 120.471 81.6824 120.797 81.28 120.797C80.8777 120.797 80.5515 120.471 80.5515 120.068C80.5515 119.666 80.8777 119.34 81.28 119.34C81.6824 119.34 82.0085 119.666 82.0085 120.068Z" fill="black"/>
<path d="M94.0044 119.584C94.0044 119.986 93.6782 120.312 93.2759 120.312C92.8735 120.312 92.5474 119.986 92.5474 119.584C92.5474 119.182 92.8735 118.855 93.2759 118.855C93.6782 118.855 94.0044 119.182 94.0044 119.584Z" fill="black"/>
<path d="M92.3039 116.74C92.3039 117.143 91.9778 117.469 91.5754 117.469C91.1731 117.469 90.8469 117.094 90.8469 116.692C90.8469 116.289 91.1731 116.012 91.5754 116.012C91.9778 116.012 92.3039 116.338 92.3039 116.74Z" fill="black"/>
<path fill-rule="evenodd" clip-rule="evenodd" d="M90.8585 116.566C90.8586 116.566 90.8586 116.566 91.576 116.692C92.2934 116.819 92.2934 116.819 92.2934 116.819L92.2936 116.818L92.2937 116.817C92.2938 116.817 92.2938 116.817 92.2937 116.817L92.293 116.821C92.2922 116.826 92.2909 116.835 92.2891 116.848C92.2854 116.873 92.2803 116.913 92.2751 116.964C92.2647 117.067 92.2547 117.212 92.2567 117.376C92.2608 117.726 92.3189 118.065 92.4512 118.29C92.57 118.492 92.7819 118.641 93.0196 118.742C93.1329 118.791 93.2368 118.822 93.311 118.841C93.3476 118.85 93.3756 118.856 93.3921 118.859C93.4004 118.86 93.4057 118.861 93.4077 118.862C93.408 118.862 93.4083 118.862 93.4084 118.862C93.4086 118.862 93.4085 118.862 93.408 118.862L93.4063 118.862L93.4049 118.861L93.4036 118.861C93.4033 118.861 93.4031 118.861 93.3001 119.582C93.1971 120.303 93.1968 120.303 93.1966 120.303L93.1961 120.303L93.1949 120.303L93.1924 120.303L93.1862 120.302C93.1816 120.301 93.176 120.3 93.1694 120.299C93.1562 120.297 93.1391 120.294 93.1186 120.29C93.0776 120.282 93.0223 120.27 92.9562 120.254C92.8249 120.221 92.6453 120.167 92.4464 120.082C92.0599 119.916 91.5335 119.604 91.1954 119.029C90.8707 118.477 90.8051 117.832 90.7999 117.393C90.7972 117.163 90.811 116.961 90.8256 116.817C90.833 116.745 90.8406 116.685 90.8467 116.643C90.8497 116.621 90.8524 116.604 90.8544 116.591C90.8555 116.585 90.8564 116.579 90.8571 116.575L90.858 116.57L90.8583 116.568L90.8585 116.566Z" fill="black"/>
<path d="M111.437 72.413C110.043 72.2079 106.885 71.0185 106.967 70.3622C107.049 69.706 109.428 61.544 110.207 59.5342C110.986 57.5245 113.324 51.8644 114.185 50.1418C115.047 48.4191 116.441 47.0246 116.605 46.5324C116.769 46.0402 116.072 45.1379 115.867 44.6047C115.662 44.0715 115.58 43.5383 115.539 42.718C115.498 41.8977 115.498 41.2005 115.99 39.888C116.482 38.5755 116.892 37.9193 117.385 37.263C117.877 36.6068 118.615 35.6634 119.763 34.8431C120.912 34.0228 121.65 33.5716 123.209 33.4486C124.767 33.3256 125.67 33.4896 126.777 33.8588C127.884 34.2279 128.611 34.8431 129.32 35.7454C130.029 36.6478 130.673 37.7962 130.961 38.8216C131.248 39.847 131.207 40.8313 131.084 41.9798C130.961 43.1282 130.427 44.1946 129.976 45.0559C129.525 45.9172 128.992 46.6145 127.597 47.6809C126.203 48.7472 124.193 48.7883 123.742 49.1164C123.291 49.4445 120.338 53.8331 119.189 56.5401C118.041 59.2471 117.467 61.2979 116.482 63.9639C115.498 66.6299 114.883 72.2899 114.883 72.2899C114.883 72.2899 112.832 72.6181 111.437 72.413Z" fill="#29A9E2"/>
<mask id="mask1_13142_597" style="mask-type:alpha" maskUnits="userSpaceOnUse" x="106" y="33" width="26" height="40">
<path d="M111.437 72.413C110.043 72.2079 106.885 71.0185 106.967 70.3622C107.049 69.706 109.428 61.544 110.207 59.5342C110.986 57.5245 113.324 51.8644 114.185 50.1418C115.047 48.4191 116.441 47.0246 116.605 46.5324C116.769 46.0402 116.072 45.1379 115.867 44.6047C115.662 44.0715 115.58 43.5383 115.539 42.718C115.498 41.8977 115.498 41.2005 115.99 39.888C116.482 38.5755 116.892 37.9193 117.385 37.263C117.877 36.6068 118.615 35.6634 119.763 34.8431C120.912 34.0228 121.65 33.5716 123.209 33.4486C124.767 33.3256 125.67 33.4896 126.777 33.8588C127.884 34.2279 128.611 34.8431 129.32 35.7454C130.029 36.6478 130.673 37.7962 130.961 38.8216C131.248 39.847 131.207 40.8313 131.084 41.9798C130.961 43.1282 130.427 44.1946 129.976 45.0559C129.525 45.9172 128.992 46.6145 127.597 47.6809C126.203 48.7472 124.193 48.7883 123.742 49.1164C123.291 49.4445 120.338 53.8331 119.189 56.5401C118.041 59.2471 117.467 61.2979 116.482 63.9639C115.498 66.6299 114.883 72.2899 114.883 72.2899C114.883 72.2899 112.832 72.6181 111.437 72.413Z" fill="#29AAE3"/>
</mask>
<g mask="url(#mask1_13142_597)">
<path d="M120.461 41.3237C120.12 40.9829 119.917 40.4257 119.824 40.1152C119.802 40.0408 119.89 39.9807 119.956 40.0221C120.293 40.235 121.056 40.6264 122.101 40.6264C123.537 40.6264 123.742 40.0932 123.906 39.56C124.033 39.1486 123.964 38.1756 123.926 37.7525C123.919 37.679 124.004 37.6354 124.058 37.6857C124.29 37.9006 124.726 38.3407 124.931 38.7808C125.219 39.396 125.054 40.7085 124.193 41.4057C123.332 42.103 122.676 42.103 122.101 42.062C121.527 42.0209 120.953 41.8159 120.461 41.3237Z" fill="#118BD4"/>
<path d="M131.576 38.3281L129.197 35.5391C129.197 35.5391 129.525 37.8769 129.484 38.4511C129.443 39.0254 129.156 40.0917 128.91 40.871C128.664 41.6503 128.008 43.2499 126.9 44.1933C125.793 45.1366 124.645 45.8749 124.07 46.08C123.496 46.285 123.004 46.4491 121.527 46.4491C120.316 46.4491 118.442 46.0626 117.808 45.9238C117.733 45.9074 117.674 45.9964 117.715 46.0611C117.902 46.3592 118.268 47.0089 118.574 47.9667C119.007 49.3202 116.031 57.3181 116.031 57.3181C116.031 57.3181 112.217 66.9567 111.807 69.5406C111.397 72.1246 111.479 72.2886 111.479 72.2886L111.151 73.273C112.299 73.3003 114.629 73.3386 114.76 73.273C114.891 73.2074 115.553 72.5894 115.867 72.2886L116.154 69.7047C116.688 67.4352 117.77 62.8798 117.836 62.8141C117.902 62.7485 119.559 58.7947 120.379 56.8259L124.234 50.1405C124.877 49.9627 126.236 49.6073 126.531 49.6073C126.9 49.6073 130.633 46.9823 130.879 46.8592C131.076 46.7608 131.891 43.9198 132.273 42.5116L131.576 38.3281Z" fill="#118BD4"/>
</g>
<path d="M69.8177 72.5796C68.0951 72.9488 64.6498 71.9644 64.6498 71.9644C64.6498 71.9644 64.3626 66.5504 63.4193 61.7516C62.5698 57.4299 60.0569 50.2142 59.5657 48.8221C59.5159 48.6811 59.3784 48.5947 59.2289 48.601C58.7888 48.6193 57.8571 48.622 57.1029 48.3807C56.0775 48.0526 54.9291 47.1092 54.642 46.8631C54.3549 46.617 53.3706 45.6327 52.9605 43.2538C52.5503 40.8749 53.1655 39.3163 53.5757 38.0859C53.9858 36.8554 54.9702 35.3789 56.6518 34.2715C58.3334 33.1641 60.1381 33 61.9838 33C63.8294 33 64.2806 33.2461 65.306 33.9433C66.3314 34.6406 67.1927 35.3379 67.8079 36.5273C68.4232 37.7167 68.7103 38.7011 68.5872 40.0956C68.4642 41.4901 68.2181 42.8026 67.4388 43.869C66.96 44.5242 66.4968 44.9007 66.2106 45.0936C66.0578 45.1967 65.9853 45.3991 66.0629 45.5664C66.6753 46.8852 69.1101 52.2346 70.1458 56.0915C71.3352 60.5212 73.0989 70.0777 73.0989 70.0777C73.0989 70.0777 71.5403 72.2105 69.8177 72.5796Z" fill="#29A9E2"/>
<mask id="mask2_13142_597" style="mask-type:alpha" maskUnits="userSpaceOnUse" x="52" y="33" width="22" height="40">
<path d="M69.8177 72.5796C68.0951 72.9488 64.6498 71.9644 64.6498 71.9644C64.6498 71.9644 64.3626 66.5504 63.4193 61.7516C62.5698 57.4299 60.0569 50.2142 59.5657 48.8221C59.5159 48.6811 59.3784 48.5947 59.2289 48.601C58.7888 48.6193 57.8571 48.622 57.1029 48.3807C56.0775 48.0526 54.9291 47.1092 54.642 46.8631C54.3549 46.617 53.3706 45.6327 52.9605 43.2538C52.5503 40.8749 53.1655 39.3163 53.5757 38.0859C53.9858 36.8554 54.9702 35.3789 56.6518 34.2715C58.3334 33.1641 60.1381 33 61.9838 33C63.8294 33 64.2806 33.2461 65.306 33.9433C66.3314 34.6406 67.1927 35.3379 67.8079 36.5273C68.4232 37.7167 68.7103 38.7011 68.5872 40.0956C68.4642 41.4901 68.2181 42.8026 67.4388 43.869C66.96 44.5242 66.4968 44.9007 66.2106 45.0936C66.0578 45.1967 65.9853 45.3991 66.0629 45.5664C66.6753 46.8852 69.1101 52.2346 70.1458 56.0915C71.3352 60.5212 73.0989 70.0777 73.0989 70.0777C73.0989 70.0777 71.5403 72.2105 69.8177 72.5796Z" fill="#29AAE3"/>
</mask>
<g mask="url(#mask2_13142_597)">
<path d="M58.7847 38.5781C58.3627 38.4157 57.8636 37.7909 57.6738 37.5374C57.6371 37.4884 57.5598 37.4931 57.5235 37.5425C57.3014 37.845 56.9476 38.0252 57.0211 38.9062C57.1032 39.8905 58.0055 40.6288 58.7847 40.8339C59.6214 41.0541 60.5895 40.9159 61.3278 40.6698C62.066 40.4237 63.1735 39.4394 63.3785 38.6601C63.5342 38.0682 63.477 37.3581 63.4405 37.0507C63.4327 36.9851 63.3551 36.9594 63.309 37.0067C62.9321 37.3934 62.5389 37.8924 62.148 38.1269C61.7378 38.373 60.9995 38.6601 60.5074 38.7011C60.0153 38.7421 59.3179 38.7831 58.7847 38.5781Z" fill="#118BD4"/>
<path d="M53.6987 48.2988L52.7964 42.6387C53.3979 43.541 53.2886 44.2793 54.7651 45.4277C56.2417 46.5761 58.2104 46.248 59.3588 46.0839C59.9086 46.0054 61.4438 45.5725 62.681 44.8535C63.572 44.3074 64.3824 43.701 64.7876 43.3869C64.8561 43.3338 64.9566 43.4102 64.9232 43.4901C64.6423 44.1629 63.9923 45.8183 63.5834 47.6425C63.0502 50.0214 65.183 54.7381 66.4544 59.9881C67.7259 65.238 68.1771 68.8063 68.7923 70.2419C69.4075 71.6774 70.0638 73.1539 70.0638 73.1539L64.5267 72.8668L63.7884 71.2672L58.5385 52.8925L53.6987 48.2988Z" fill="#118BD4"/>
</g>
</svg>
